<svg width="200" height="200" viewBox="0 0 200 200" xmlns="http://www.w3.org/2000/svg">
      <!-- 背景：透明 -->
      <rect width="200" height="200" fill="none"/>

      <!-- 身体 - 根据状态调整 -->
      
    <ellipse cx="100" cy="110" rx="60" ry="55" fill="#FF8C42" transform="scale(1.043301270189222)"/>
    <ellipse cx="100" cy="115" rx="50" ry="40" fill="#E67E22" transform="scale(1.043301270189222)"/>
  

      <!-- 肚子 -->
      
    <ellipse cx="100" cy="125" rx="40" ry="30" fill="#FFE4B5" transform="scale(1.025980762113533)"/>
  

      <!-- 耳朵 -->
      
    <!-- 左耳 -->
    <ellipse cx="55" cy="60" rx="18" ry="25" fill="#FF8C42"
            transform="rotate(-6.339745962155613deg, 55, 70)"/>
    <ellipse cx="55" cy="63" rx="10" ry="15" fill="#FFB6C1"
            transform="rotate(-6.339745962155613deg, 55, 70)"/>

    <!-- 右耳 -->
    <ellipse cx="145" cy="60" rx="18" ry="25" fill="#FF8C42"
            transform="rotate(6.339745962155613deg, 145, 70)"/>
    <ellipse cx="145" cy="63" rx="10" ry="15" fill="#FFB6C1"
            transform="rotate(6.339745962155613deg, 145, 70)"/>
  

      <!-- 眼睛 -->
      
    <!-- 左眼外圈 -->
    <ellipse cx="80" cy="95" rx="12" ry="15" fill="white"/>
    
      <!-- 左眼球 -->
      <circle cx="80" cy="95" r="6" fill="#2C3E50"/>
      <!-- 左眼高光 -->
      <circle cx="78" cy="93" r="2" fill="#FFFFFF"/>
    

    <!-- 右眼外圈 -->
    <ellipse cx="120" cy="95" rx="12" ry="15" fill="white"/>
    
      <!-- 右眼球 -->
      <circle cx="120" cy="95" r="6" fill="#2C3E50"/>
      <!-- 右眼高光 -->
      <circle cx="118" cy="93" r="2" fill="#FFFFFF"/>
    
  

      <!-- 鼻子 -->
      
    <ellipse cx="100" cy="110" rx="6" ry="5" fill="#FF6B6B" transform="scale(1.0564642473395036)"/>
  

      <!-- 腮红 -->
      
    <ellipse cx="70" cy="115" rx="8" ry="5" fill="#FFB347" opacity="0.7778836684617301"/>
    <ellipse cx="130" cy="115" rx="8" ry="5" fill="#FFB347" opacity="0.7778836684617301"/>
  

      <!-- 嘴巴 -->
      <path d="M 90 118 Q 100 127 110 118" stroke="#8B7355" stroke-width="3" fill="none"/>

      <!-- 胡须 -->
      
    <!-- 左侧胡须 -->
    <line x1="50" y1="105" x2="20" y2="102.5244129544237" stroke="#8B7355" stroke-width="2" opacity="0.7693927420185106"/>
    <line x1="50" y1="110" x2="20" y2="112.5244129544237" stroke="#8B7355" stroke-width="2" opacity="0.7693927420185106"/>
    <line x1="50" y1="115" x2="20" y2="117.5244129544237" stroke="#8B7355" stroke-width="2" opacity="0.7693927420185106"/>

    <!-- 右侧胡须 -->
    <line x1="150" y1="105" x2="180" y2="102.5244129544237" stroke="#8B7355" stroke-width="2" opacity="0.7693927420185106"/>
    <line x1="150" y1="110" x2="180" y2="112.5244129544237" stroke="#8B7355" stroke-width="2" opacity="0.7693927420185106"/>
    <line x1="150" y1="115" x2="180" y2="117.5244129544237" stroke="#8B7355" stroke-width="2" opacity="0.7693927420185106"/>
  

      <!-- 特效 -->
      
        <!-- 星星 1 -->
        <text x="25" y="30.218254050173098" font-size="16">⭐</text>
      
        <!-- 星星 2 -->
        <text x="170" y="40.2182540501731" font-size="16">⭐</text>
      
        <!-- 星星 3 -->
        <text x="15" y="60.2182540501731" font-size="16">⭐</text>
      
        <!-- 星星 4 -->
        <text x="180" y="50.2182540501731" font-size="16">⭐</text>
      
        <!-- 星星 5 -->
        <text x="20" y="75.2182540501731" font-size="16">⭐</text>
      
        <!-- 星星 6 -->
        <text x="175" y="70.2182540501731" font-size="16">⭐</text>
      
    </svg>