<svg width="200" height="200" viewBox="0 0 200 200" xmlns="http://www.w3.org/2000/svg">
      <!-- 背景：透明 -->
      <rect width="200" height="200" fill="none"/>

      <!-- 身体 - 根据状态调整 -->
      
    <ellipse cx="100" cy="110" rx="60" ry="55" fill="#FF8C42" transform="scale(1.043301270189222)"/>
    <ellipse cx="100" cy="115" rx="50" ry="40" fill="#E67E22" transform="scale(1.043301270189222)"/>
  

      <!-- 肚子 -->
      
    <ellipse cx="100" cy="125" rx="40" ry="30" fill="#FFE4B5" transform="scale(1.025980762113533)"/>
  

      <!-- 耳朵 -->
      
    <!-- 左耳 -->
    <ellipse cx="55" cy="60" rx="18" ry="25" fill="#FF8C42"
            transform="rotate(-6.339745962155613deg, 55, 70)"/>
    <ellipse cx="55" cy="63" rx="10" ry="15" fill="#FFB6C1"
            transform="rotate(-6.339745962155613deg, 55, 70)"/>

    <!-- 右耳 -->
    <ellipse cx="145" cy="60" rx="18" ry="25" fill="#FF8C42"
            transform="rotate(6.339745962155613deg, 145, 70)"/>
    <ellipse cx="145" cy="63" rx="10" ry="15" fill="#FFB6C1"
            transform="rotate(6.339745962155613deg, 145, 70)"/>
  

      <!-- 眼睛 -->
      
    <!-- 左眼外圈 -->
    <ellipse cx="80" cy="95" rx="12" ry="15" fill="white"/>
    
      <!-- 左眼球 -->
      <circle cx="80" cy="95" r="6" fill="#2C3E50"/>
      <!-- 左眼高光 -->
      <circle cx="78" cy="93" r="2" fill="#FFFFFF"/>
    

    <!-- 右眼外圈 -->
    <ellipse cx="120" cy="95" rx="12" ry="15" fill="white"/>
    
      <!-- 右眼球 -->
      <circle cx="120" cy="95" r="6" fill="#2C3E50"/>
      <!-- 右眼高光 -->
      <circle cx="118" cy="93" r="2" fill="#FFFFFF"/>
    
  

      <!-- 鼻子 -->
      
    <ellipse cx="100" cy="110" rx="6" ry="5" fill="#FF6B6B" transform="scale(1.0564642473395036)"/>
  

      <!-- 腮红 -->
      
    <ellipse cx="70" cy="115" rx="8" ry="5" fill="#FFB347" opacity="0.7778836684617301"/>
    <ellipse cx="130" cy="115" rx="8" ry="5" fill="#FFB347" opacity="0.7778836684617301"/>
  

      <!-- 嘴巴 -->
      <circle cx="100" cy="125" r="3" fill="#8B7355"/>

      <!-- 胡须 -->
      
    <!-- 左侧胡须 -->
    <line x1="50" y1="105" x2="20" y2="102.5244129544237" stroke="#8B7355" stroke-width="2" opacity="0.7693927420185106"/>
    <line x1="50" y1="110" x2="20" y2="112.5244129544237" stroke="#8B7355" stroke-width="2" opacity="0.7693927420185106"/>
    <line x1="50" y1="115" x2="20" y2="117.5244129544237" stroke="#8B7355" stroke-width="2" opacity="0.7693927420185106"/>

    <!-- 右侧胡须 -->
    <line x1="150" y1="105" x2="180" y2="102.5244129544237" stroke="#8B7355" stroke-width="2" opacity="0.7693927420185106"/>
    <line x1="150" y1="110" x2="180" y2="112.5244129544237" stroke="#8B7355" stroke-width="2" opacity="0.7693927420185106"/>
    <line x1="150" y1="115" x2="180" y2="117.5244129544237" stroke="#8B7355" stroke-width="2" opacity="0.7693927420185106"/>
  

      <!-- 特效 -->
      
        <!-- Z 气泡 -->
        <ellipse cx="160" cy="50" rx="25" ry="20" fill="rgba(255,255,255,0.9)" stroke="#ccc" stroke-width="1" opacity="0.7176787633024824"/>
        <text x="155" y="55" font-size="16" fill="#666" opacity="0.7176787633024824">Z</text>

        <!-- 呼噜声波 -->
        <text x="155" y="75" font-size="12" fill="#999">💤</text>
        
      
    </svg>